<?xml version="1.0" encoding="UTF-8"?>
<svg width="64" height="64" version="1.1" viewBox="0 0 64 64" xmlns="http://www.w3.org/2000/svg"><path d="m21.016 0.0015599c-0.0816 6e-3 -0.16436 0.0301-0.24399 0.0743-0.28315 0.15696-0.37632 0.48181-0.21937 0.76496l2.7923 5.0372c-5.364 2.7912-8.9894 8.0959-8.9972 14.184h35.303c-8e-3 -6.0884-3.6329-11.393-8.9968-14.184l2.7923-5.0372c0.15695-0.28315 0.0638-0.608-0.21937-0.76496-0.28314-0.15695-0.608-0.0638-0.76495 0.21937l-2.823 5.0929c-2.3118-1.0262-4.9031-1.6011-7.6397-1.6011-2.7366-3e-5 -5.3278 0.57497-7.6397 1.6011l-2.823-5.0929c-0.0981-0.17696-0.26181-0.27977-0.43988-0.29362-0.0267-2e-3 -0.0539-2e-3 -0.0811 0zm2.8363 10.653c0.80595 0 1.4742 0.66825 1.4742 1.4742 0 0.80595-0.66826 1.4742-1.4742 1.4742-0.80596 0-1.4742-0.66826-1.4742-1.4742 0-0.80596 0.66825-1.4742 1.4742-1.4742zm16.295 0c0.80595 0 1.4742 0.66825 1.4742 1.4742 0 0.80595-0.66826 1.4742-1.4742 1.4742s-1.4742-0.66826-1.4742-1.4742c0-0.80596 0.66826-1.4742 1.4742-1.4742zm-31.232 10.126c-2.2044 0-3.9574 1.753-3.9574 3.9574v16.489c0 2.2044 1.753 3.9574 3.9574 3.9574 2.2044 0 3.9574-1.753 3.9574-3.9574v-16.489c0-2.2044-1.753-3.9574-3.9574-3.9574zm46.168 0c-2.2044 0-3.9574 1.753-3.9574 3.9574v16.489c0 2.2044 1.753 3.9574 3.9574 3.9574s3.9574-1.753 3.9574-3.9574v-16.489c0-2.2044-1.753-3.9574-3.9574-3.9574zm-40.737 0.67895v25.587c0 2.3643 1.9034 4.2677 4.2677 4.2677h2.8321v8.7293c0 2.2044 1.753 3.9574 3.9574 3.9574s3.9574-1.753 3.9574-3.9574v-8.7293h5.2762v8.7293c0 2.2044 1.753 3.9574 3.9574 3.9574s3.9574-1.753 3.9574-3.9574v-8.7293h2.8321c2.3643 0 4.2677-1.9034 4.2677-4.2677v-25.587z" fill="#e6e9ee"/></svg>
