<?xml version="1.0" standalone="no"?><svg xmlns="http://www.w3.org/2000/svg" xmlns:xlink="http://www.w3.org/1999/xlink" style="isolation:isolate" viewBox="1083 565.276 55.461 54.075" width="55.461" height="54.075"><path d=" M 1101.087 607.729 C 1101.087 607.947 1100.836 608.122 1100.52 608.122 C 1100.16 608.155 1099.909 607.98 1099.909 607.729 C 1099.909 607.511 1100.16 607.337 1100.476 607.337 C 1100.803 607.304 1101.087 607.479 1101.087 607.729 Z  M 1097.696 607.239 C 1097.62 607.457 1097.838 607.708 1098.165 607.773 C 1098.448 607.882 1098.775 607.773 1098.841 607.555 C 1098.906 607.337 1098.699 607.086 1098.372 606.988 C 1098.089 606.912 1097.772 607.021 1097.696 607.239 Z  M 1102.515 607.053 C 1102.199 607.13 1101.981 607.337 1102.013 607.588 C 1102.046 607.806 1102.329 607.947 1102.657 607.871 C 1102.973 607.795 1103.191 607.588 1103.158 607.37 C 1103.125 607.162 1102.831 607.021 1102.515 607.053 Z  M 1109.688 565.276 C 1094.567 565.276 1083 576.756 1083 591.878 C 1083 603.968 1090.61 614.314 1101.479 617.956 C 1102.875 618.206 1103.365 617.345 1103.365 616.636 C 1103.365 615.96 1103.332 612.232 1103.332 609.943 C 1103.332 609.943 1095.701 611.578 1094.098 606.694 C 1094.098 606.694 1092.856 603.521 1091.068 602.703 C 1091.068 602.703 1088.571 600.992 1091.242 601.025 C 1091.242 601.025 1093.957 601.243 1095.45 603.837 C 1097.838 608.046 1101.839 606.835 1103.398 606.116 C 1103.649 604.372 1104.357 603.161 1105.142 602.442 C 1099.048 601.766 1092.899 600.883 1092.899 590.395 C 1092.899 587.397 1093.728 585.892 1095.472 583.974 C 1095.189 583.265 1094.262 580.343 1095.755 576.571 C 1098.034 575.862 1103.278 579.515 1103.278 579.515 C 1105.458 578.904 1107.802 578.588 1110.125 578.588 C 1112.447 578.588 1114.791 578.904 1116.971 579.515 C 1116.971 579.515 1122.215 575.852 1124.494 576.571 C 1125.987 580.354 1125.06 583.265 1124.777 583.974 C 1126.521 585.903 1127.59 587.408 1127.59 590.395 C 1127.59 600.916 1121.168 601.755 1115.074 602.442 C 1116.077 603.303 1116.927 604.938 1116.927 607.5 C 1116.927 611.174 1116.895 615.721 1116.895 616.615 C 1116.895 617.323 1117.396 618.185 1118.781 617.934 C 1129.683 614.314 1137.075 603.968 1137.075 591.878 C 1137.075 576.756 1124.81 565.276 1109.688 565.276 Z  M 1093.597 602.878 C 1093.455 602.987 1093.488 603.238 1093.673 603.445 C 1093.848 603.619 1094.098 603.696 1094.24 603.554 C 1094.382 603.445 1094.349 603.194 1094.164 602.987 C 1093.989 602.813 1093.739 602.736 1093.597 602.878 Z  M 1092.419 601.995 C 1092.343 602.137 1092.452 602.311 1092.67 602.42 C 1092.845 602.529 1093.063 602.496 1093.139 602.344 C 1093.215 602.202 1093.106 602.028 1092.888 601.919 C 1092.67 601.853 1092.496 601.886 1092.419 601.995 Z  M 1095.952 605.876 C 1095.777 606.018 1095.843 606.345 1096.093 606.552 C 1096.344 606.803 1096.66 606.835 1096.802 606.661 C 1096.944 606.519 1096.878 606.192 1096.66 605.985 C 1096.421 605.734 1096.093 605.702 1095.952 605.876 Z  M 1094.709 604.273 C 1094.534 604.382 1094.534 604.666 1094.709 604.917 C 1094.883 605.167 1095.178 605.276 1095.319 605.167 C 1095.494 605.026 1095.494 604.742 1095.319 604.491 C 1095.167 604.241 1094.883 604.132 1094.709 604.273 Z " fill="#e6e9ee"/></svg>
